<svg width="48" height="48" viewBox="0 0 48 48" fill="none" xmlns="http://www.w3.org/2000/svg">
<g id="Group 21">
<rect id="Rectangle 11" width="48" height="48" rx="10" fill="#1976D2"/>
<g id="031-linkedin" clip-path="url(#clip0_40_4)">
<g id="Group">
<path id="Vector" d="M17.5906 17.8125H11.9999V35H17.5906V17.8125Z" fill="white"/>
<path id="Vector_2" d="M32.8187 18.0141C32.7593 17.9953 32.7031 17.975 32.6406 17.9578C32.5656 17.9407 32.4906 17.9266 32.414 17.9141C32.1171 17.8547 31.7921 17.8125 31.4109 17.8125C28.1515 17.8125 26.0843 20.1828 25.4031 21.0985V17.8125H19.8124V35H25.4031V25.625C25.4031 25.625 29.6281 19.7407 31.4109 24.0625C31.4109 27.9203 31.4109 35 31.4109 35H36.9999V23.4016C36.9999 20.8047 35.2203 18.6407 32.8187 18.0141Z" fill="white"/>
<path id="Vector_3" d="M14.7343 15.4688C16.2444 15.4688 17.4686 14.2445 17.4686 12.7344C17.4686 11.2242 16.2444 10 14.7343 10C13.2241 10 11.9999 11.2242 11.9999 12.7344C11.9999 14.2445 13.2241 15.4688 14.7343 15.4688Z" fill="white"/>
</g>
</g>
</g>
<defs>
<clipPath id="clip0_40_4">
<rect width="25" height="25" fill="white" transform="translate(12 10)"/>
</clipPath>
</defs>
</svg>
