<svg width="48" height="48" viewBox="0 0 48 48" fill="none" xmlns="http://www.w3.org/2000/svg">
<rect width="48" height="48" rx="10" fill="#D32F2F"/>
<path d="M25.9518 8C16.8438 8 12 13.7959 12 20.1157C12 23.0466 13.6492 26.7015 16.2892 27.8607C16.6901 28.0402 16.9081 27.9638 16.9975 27.5946C17.0764 27.3141 17.4233 25.9631 17.5915 25.3258C17.6434 25.1216 17.6164 24.9442 17.4503 24.7524C16.5737 23.7458 15.8779 21.9122 15.8779 20.192C15.8779 15.7842 19.4069 11.5043 25.4117 11.5043C30.6044 11.5043 34.2372 14.854 34.2372 19.6454C34.2372 25.0597 31.3522 28.8054 27.603 28.8054C25.528 28.8054 23.9827 27.1883 24.4729 25.1876C25.0649 22.8053 26.2259 20.2436 26.2259 18.5254C26.2259 16.9847 25.3494 15.71 23.559 15.71C21.4466 15.71 19.733 17.787 19.733 20.5756C19.733 22.3474 20.3644 23.5437 20.3644 23.5437C20.3644 23.5437 18.2749 31.9261 17.8865 33.4916C17.2301 36.142 17.9758 40.4343 18.0402 40.8035C18.0796 41.0077 18.3102 41.0716 18.439 40.9046C18.6446 40.6364 21.1703 37.0578 21.8786 34.4713C22.1362 33.5287 23.1934 29.7067 23.1934 29.7067C23.8892 30.9546 25.8978 32.0003 28.0372 32.0003C34.4013 32.0003 39 26.4458 39 19.5526C38.9772 12.944 33.2818 8 25.9518 8Z" fill="white"/>
</svg>
