<svg width="48" height="48" viewBox="0 0 48 48" fill="none" xmlns="http://www.w3.org/2000/svg">
<g id="Group 19">
<rect id="Rectangle 11" width="48" height="48" rx="10" fill="#299EE8"/>
<path id="Vector" d="M39 15.7228C37.9216 16.1846 36.7724 16.4907 35.5744 16.6393C36.8069 15.921 37.7476 14.7922 38.1898 13.4317C37.0407 14.1005 35.7719 14.5728 34.4198 14.8365C33.3287 13.7024 31.7736 13 30.0771 13C26.7856 13 24.1357 15.6078 24.1357 18.8048C24.1357 19.2648 24.1756 19.7072 24.2734 20.1282C19.3308 19.8929 14.9572 17.5805 12.0191 14.058C11.5062 14.9267 11.2053 15.921 11.2053 16.9914C11.2053 19.0012 12.2656 20.7828 13.8461 21.8143C12.8909 21.7966 11.9539 21.5259 11.16 21.0995C11.16 21.1172 11.16 21.1402 11.16 21.1632C11.16 23.9834 13.2208 26.3258 15.9232 26.8655C15.4393 26.9946 14.9119 27.0565 14.3645 27.0565C13.9839 27.0565 13.5996 27.0353 13.2389 26.9575C14.0092 29.2557 16.1951 30.9453 18.7943 31.0002C16.7715 32.5447 14.2032 33.4753 11.4228 33.4753C10.9353 33.4753 10.4676 33.4541 10 33.3957C12.6336 35.0535 15.7547 36 19.1205 36C30.0607 36 36.042 27.1538 36.042 19.486C36.042 19.2295 36.0329 18.9818 36.0203 18.7358C37.2002 17.9185 38.1916 16.8976 39 15.7228Z" fill="white"/>
</g>
</svg>
